<mxfile host="Electron" modified="2025-03-20T22:47:57.088Z" agent="Mozilla/5.0 (X11; Linux x86_64) AppleWebKit/537.36 (KHTML, like Gecko) draw.io/21.6.5 Chrome/114.0.5735.243 Electron/25.3.1 Safari/537.36" etag="6Ej9VpPwx7QiVerokIm4" version="21.6.5" type="device">
  <diagram name="Page-1" id="amlL32T-MJD5DSymMVKv">
    <mxGraphModel dx="406" dy="481" grid="1" gridSize="10" guides="1" tooltips="1" connect="1" arrows="1" fold="1" page="1" pageScale="1" pageWidth="827" pageHeight="1169" math="0" shadow="0">
      <root>
        <mxCell id="0" />
        <mxCell id="1" parent="0" />
        <mxCell id="UtuOTkVcpKc2-n4UdsgH-22" value="" style="ellipse;shape=cloud;whiteSpace=wrap;html=1;fillColor=#f5f5f5;fontColor=#333333;strokeColor=#666666;" vertex="1" parent="1">
          <mxGeometry x="310" y="380" width="220" height="170" as="geometry" />
        </mxCell>
        <mxCell id="M0SOaduBp_Vg7qEL4J6j-1" value="" style="rounded=0;whiteSpace=wrap;html=1;" parent="1" vertex="1">
          <mxGeometry x="370" y="220" width="100" height="140" as="geometry" />
        </mxCell>
        <mxCell id="UtuOTkVcpKc2-n4UdsgH-4" value="" style="group" vertex="1" connectable="0" parent="1">
          <mxGeometry x="412.5" y="330" width="20" height="20" as="geometry" />
        </mxCell>
        <mxCell id="UtuOTkVcpKc2-n4UdsgH-2" value="" style="rounded=0;whiteSpace=wrap;html=1;fillColor=#dae8fc;strokeColor=#6c8ebf;" vertex="1" parent="UtuOTkVcpKc2-n4UdsgH-4">
          <mxGeometry width="20" height="20" as="geometry" />
        </mxCell>
        <mxCell id="UtuOTkVcpKc2-n4UdsgH-3" value="" style="triangle;whiteSpace=wrap;html=1;rotation=-90;fillColor=#dae8fc;strokeColor=#6c8ebf;" vertex="1" parent="UtuOTkVcpKc2-n4UdsgH-4">
          <mxGeometry x="7.5" y="12.5" width="5" height="10" as="geometry" />
        </mxCell>
        <mxCell id="UtuOTkVcpKc2-n4UdsgH-5" value="" style="group" vertex="1" connectable="0" parent="1">
          <mxGeometry x="412.5" y="300" width="20" height="20" as="geometry" />
        </mxCell>
        <mxCell id="UtuOTkVcpKc2-n4UdsgH-6" value="" style="rounded=0;whiteSpace=wrap;html=1;fillColor=#dae8fc;strokeColor=#6c8ebf;" vertex="1" parent="UtuOTkVcpKc2-n4UdsgH-5">
          <mxGeometry width="20" height="20" as="geometry" />
        </mxCell>
        <mxCell id="UtuOTkVcpKc2-n4UdsgH-7" value="" style="triangle;whiteSpace=wrap;html=1;rotation=-90;fillColor=#dae8fc;strokeColor=#6c8ebf;" vertex="1" parent="UtuOTkVcpKc2-n4UdsgH-5">
          <mxGeometry x="7.5" y="12.5" width="5" height="10" as="geometry" />
        </mxCell>
        <mxCell id="UtuOTkVcpKc2-n4UdsgH-8" value="" style="group" vertex="1" connectable="0" parent="1">
          <mxGeometry x="412.5" y="270" width="20" height="20" as="geometry" />
        </mxCell>
        <mxCell id="UtuOTkVcpKc2-n4UdsgH-9" value="" style="rounded=0;whiteSpace=wrap;html=1;fillColor=#dae8fc;strokeColor=#6c8ebf;" vertex="1" parent="UtuOTkVcpKc2-n4UdsgH-8">
          <mxGeometry width="20" height="20" as="geometry" />
        </mxCell>
        <mxCell id="UtuOTkVcpKc2-n4UdsgH-10" value="" style="triangle;whiteSpace=wrap;html=1;rotation=-90;fillColor=#dae8fc;strokeColor=#6c8ebf;" vertex="1" parent="UtuOTkVcpKc2-n4UdsgH-8">
          <mxGeometry x="7.5" y="12.5" width="5" height="10" as="geometry" />
        </mxCell>
        <mxCell id="UtuOTkVcpKc2-n4UdsgH-11" value="" style="endArrow=none;html=1;rounded=0;exitX=1;exitY=1;exitDx=0;exitDy=0;" edge="1" parent="1" source="UtuOTkVcpKc2-n4UdsgH-47">
          <mxGeometry width="50" height="50" relative="1" as="geometry">
            <mxPoint x="362.5" y="340" as="sourcePoint" />
            <mxPoint x="412.5" y="340" as="targetPoint" />
          </mxGeometry>
        </mxCell>
        <mxCell id="UtuOTkVcpKc2-n4UdsgH-13" value="" style="endArrow=none;html=1;rounded=0;entryX=0;entryY=0.5;entryDx=0;entryDy=0;" edge="1" parent="1" target="UtuOTkVcpKc2-n4UdsgH-9">
          <mxGeometry width="50" height="50" relative="1" as="geometry">
            <mxPoint x="392.5" y="340" as="sourcePoint" />
            <mxPoint x="422.5" y="350" as="targetPoint" />
            <Array as="points">
              <mxPoint x="392.5" y="280" />
            </Array>
          </mxGeometry>
        </mxCell>
        <mxCell id="UtuOTkVcpKc2-n4UdsgH-14" value="" style="endArrow=none;html=1;rounded=0;" edge="1" parent="1">
          <mxGeometry width="50" height="50" relative="1" as="geometry">
            <mxPoint x="392.5" y="310" as="sourcePoint" />
            <mxPoint x="412.5" y="310" as="targetPoint" />
          </mxGeometry>
        </mxCell>
        <mxCell id="UtuOTkVcpKc2-n4UdsgH-15" value="" style="endArrow=none;html=1;rounded=0;entryX=0;entryY=0.5;entryDx=0;entryDy=0;" edge="1" parent="1">
          <mxGeometry width="50" height="50" relative="1" as="geometry">
            <mxPoint x="452.5" y="340" as="sourcePoint" />
            <mxPoint x="432.5" y="280" as="targetPoint" />
            <Array as="points">
              <mxPoint x="452.5" y="280" />
            </Array>
          </mxGeometry>
        </mxCell>
        <mxCell id="UtuOTkVcpKc2-n4UdsgH-16" value="" style="endArrow=none;html=1;rounded=0;" edge="1" parent="1">
          <mxGeometry width="50" height="50" relative="1" as="geometry">
            <mxPoint x="432.5" y="310" as="sourcePoint" />
            <mxPoint x="452.5" y="310" as="targetPoint" />
          </mxGeometry>
        </mxCell>
        <mxCell id="UtuOTkVcpKc2-n4UdsgH-18" value="MultiStateLoop" style="text;html=1;strokeColor=none;fillColor=none;align=center;verticalAlign=middle;whiteSpace=wrap;rounded=0;" vertex="1" parent="1">
          <mxGeometry x="365" y="190" width="110" height="30" as="geometry" />
        </mxCell>
        <mxCell id="UtuOTkVcpKc2-n4UdsgH-21" value="" style="endArrow=classic;html=1;rounded=0;exitX=1;exitY=0.5;exitDx=0;exitDy=0;" edge="1" parent="1" source="UtuOTkVcpKc2-n4UdsgH-2">
          <mxGeometry width="50" height="50" relative="1" as="geometry">
            <mxPoint x="360" y="460" as="sourcePoint" />
            <mxPoint x="510" y="450" as="targetPoint" />
            <Array as="points">
              <mxPoint x="540" y="340" />
              <mxPoint x="540" y="450" />
            </Array>
          </mxGeometry>
        </mxCell>
        <mxCell id="UtuOTkVcpKc2-n4UdsgH-23" value="" style="endArrow=classic;html=1;rounded=0;exitX=0.07;exitY=0.4;exitDx=0;exitDy=0;exitPerimeter=0;entryX=1;entryY=1;entryDx=0;entryDy=0;" edge="1" parent="1" source="UtuOTkVcpKc2-n4UdsgH-22" target="UtuOTkVcpKc2-n4UdsgH-47">
          <mxGeometry width="50" height="50" relative="1" as="geometry">
            <mxPoint x="360" y="460" as="sourcePoint" />
            <mxPoint x="390" y="340" as="targetPoint" />
            <Array as="points">
              <mxPoint x="300" y="448" />
              <mxPoint x="300" y="340" />
            </Array>
          </mxGeometry>
        </mxCell>
        <mxCell id="UtuOTkVcpKc2-n4UdsgH-45" value="" style="group" vertex="1" connectable="0" parent="1">
          <mxGeometry x="365" y="440" width="110" height="20" as="geometry" />
        </mxCell>
        <mxCell id="UtuOTkVcpKc2-n4UdsgH-24" value="" style="group;fillColor=#fff2cc;strokeColor=#d6b656;container=0;" vertex="1" connectable="0" parent="UtuOTkVcpKc2-n4UdsgH-45">
          <mxGeometry width="20" height="20" as="geometry" />
        </mxCell>
        <mxCell id="UtuOTkVcpKc2-n4UdsgH-36" value="" style="group;fillColor=#fff2cc;strokeColor=#d6b656;container=0;" vertex="1" connectable="0" parent="UtuOTkVcpKc2-n4UdsgH-45">
          <mxGeometry x="30" width="20" height="20" as="geometry" />
        </mxCell>
        <mxCell id="UtuOTkVcpKc2-n4UdsgH-39" value="" style="group;fillColor=#fff2cc;strokeColor=#d6b656;container=0;" vertex="1" connectable="0" parent="UtuOTkVcpKc2-n4UdsgH-45">
          <mxGeometry x="60" width="20" height="20" as="geometry" />
        </mxCell>
        <mxCell id="UtuOTkVcpKc2-n4UdsgH-42" value="" style="group;fillColor=#fff2cc;strokeColor=#d6b656;container=0;" vertex="1" connectable="0" parent="UtuOTkVcpKc2-n4UdsgH-45">
          <mxGeometry x="90" width="20" height="20" as="geometry" />
        </mxCell>
        <mxCell id="UtuOTkVcpKc2-n4UdsgH-43" value="" style="rounded=0;whiteSpace=wrap;html=1;fillColor=#fff2cc;strokeColor=#d6b656;" vertex="1" parent="UtuOTkVcpKc2-n4UdsgH-45">
          <mxGeometry x="90" width="20" height="20" as="geometry" />
        </mxCell>
        <mxCell id="UtuOTkVcpKc2-n4UdsgH-44" value="" style="triangle;whiteSpace=wrap;html=1;rotation=-90;fillColor=#fff2cc;strokeColor=#d6b656;" vertex="1" parent="UtuOTkVcpKc2-n4UdsgH-45">
          <mxGeometry x="97.5" y="12.5" width="5" height="10" as="geometry" />
        </mxCell>
        <mxCell id="UtuOTkVcpKc2-n4UdsgH-40" value="" style="rounded=0;whiteSpace=wrap;html=1;fillColor=#fff2cc;strokeColor=#d6b656;" vertex="1" parent="UtuOTkVcpKc2-n4UdsgH-45">
          <mxGeometry x="60" width="20" height="20" as="geometry" />
        </mxCell>
        <mxCell id="UtuOTkVcpKc2-n4UdsgH-41" value="" style="triangle;whiteSpace=wrap;html=1;rotation=-90;fillColor=#fff2cc;strokeColor=#d6b656;" vertex="1" parent="UtuOTkVcpKc2-n4UdsgH-45">
          <mxGeometry x="67.5" y="12.5" width="5" height="10" as="geometry" />
        </mxCell>
        <mxCell id="UtuOTkVcpKc2-n4UdsgH-37" value="" style="rounded=0;whiteSpace=wrap;html=1;fillColor=#fff2cc;strokeColor=#d6b656;" vertex="1" parent="UtuOTkVcpKc2-n4UdsgH-45">
          <mxGeometry x="30" width="20" height="20" as="geometry" />
        </mxCell>
        <mxCell id="UtuOTkVcpKc2-n4UdsgH-38" value="" style="triangle;whiteSpace=wrap;html=1;rotation=-90;fillColor=#fff2cc;strokeColor=#d6b656;" vertex="1" parent="UtuOTkVcpKc2-n4UdsgH-45">
          <mxGeometry x="37.5" y="12.5" width="5" height="10" as="geometry" />
        </mxCell>
        <mxCell id="UtuOTkVcpKc2-n4UdsgH-25" value="" style="rounded=0;whiteSpace=wrap;html=1;fillColor=#fff2cc;strokeColor=#d6b656;" vertex="1" parent="UtuOTkVcpKc2-n4UdsgH-45">
          <mxGeometry width="20" height="20" as="geometry" />
        </mxCell>
        <mxCell id="UtuOTkVcpKc2-n4UdsgH-26" value="" style="triangle;whiteSpace=wrap;html=1;rotation=-90;fillColor=#fff2cc;strokeColor=#d6b656;" vertex="1" parent="UtuOTkVcpKc2-n4UdsgH-45">
          <mxGeometry x="7.5" y="12.5" width="5" height="10" as="geometry" />
        </mxCell>
        <mxCell id="UtuOTkVcpKc2-n4UdsgH-47" value="next_state&#39;4" style="text;html=1;strokeColor=none;fillColor=none;align=right;verticalAlign=middle;whiteSpace=wrap;rounded=0;fontFamily=Courier New;fontSize=9;fontColor=#009900;" vertex="1" parent="1">
          <mxGeometry x="290" y="320" width="80" height="20" as="geometry" />
        </mxCell>
        <mxCell id="UtuOTkVcpKc2-n4UdsgH-48" value="cur_state&#39;0" style="text;html=1;strokeColor=none;fillColor=none;align=left;verticalAlign=middle;whiteSpace=wrap;rounded=0;fontFamily=Courier New;fontSize=9;fontColor=#009900;" vertex="1" parent="1">
          <mxGeometry x="470" y="320" width="72.5" height="20" as="geometry" />
        </mxCell>
        <mxCell id="UtuOTkVcpKc2-n4UdsgH-49" value="" style="endArrow=classic;html=1;rounded=0;exitX=0.113;exitY=0.527;exitDx=0;exitDy=0;exitPerimeter=0;entryX=1;entryY=0;entryDx=0;entryDy=0;" edge="1" parent="1" source="UtuOTkVcpKc2-n4UdsgH-22" target="UtuOTkVcpKc2-n4UdsgH-47">
          <mxGeometry width="50" height="50" relative="1" as="geometry">
            <mxPoint x="335" y="468" as="sourcePoint" />
            <mxPoint x="370" y="310" as="targetPoint" />
            <Array as="points">
              <mxPoint x="290" y="470" />
              <mxPoint x="290" y="320" />
            </Array>
          </mxGeometry>
        </mxCell>
        <mxCell id="UtuOTkVcpKc2-n4UdsgH-50" value="finish&#39;1" style="text;html=1;strokeColor=none;fillColor=none;align=right;verticalAlign=middle;whiteSpace=wrap;rounded=0;fontFamily=Courier New;fontSize=9;fontColor=#009900;" vertex="1" parent="1">
          <mxGeometry x="300" y="300" width="70" height="20" as="geometry" />
        </mxCell>
        <mxCell id="UtuOTkVcpKc2-n4UdsgH-51" value="" style="endArrow=classic;html=1;rounded=0;" edge="1" parent="1">
          <mxGeometry width="50" height="50" relative="1" as="geometry">
            <mxPoint x="550" y="280" as="sourcePoint" />
            <mxPoint x="470" y="280" as="targetPoint" />
          </mxGeometry>
        </mxCell>
        <mxCell id="UtuOTkVcpKc2-n4UdsgH-52" value="" style="endArrow=classic;html=1;rounded=0;" edge="1" parent="1">
          <mxGeometry width="50" height="50" relative="1" as="geometry">
            <mxPoint x="370" y="280" as="sourcePoint" />
            <mxPoint x="290" y="280" as="targetPoint" />
          </mxGeometry>
        </mxCell>
        <mxCell id="UtuOTkVcpKc2-n4UdsgH-53" value="" style="endArrow=classic;html=1;rounded=0;" edge="1" parent="1">
          <mxGeometry width="50" height="50" relative="1" as="geometry">
            <mxPoint x="290" y="240" as="sourcePoint" />
            <mxPoint x="370" y="240" as="targetPoint" />
          </mxGeometry>
        </mxCell>
        <mxCell id="UtuOTkVcpKc2-n4UdsgH-54" value="" style="endArrow=classic;html=1;rounded=0;" edge="1" parent="1">
          <mxGeometry width="50" height="50" relative="1" as="geometry">
            <mxPoint x="470" y="260" as="sourcePoint" />
            <mxPoint x="550" y="260" as="targetPoint" />
          </mxGeometry>
        </mxCell>
        <mxCell id="UtuOTkVcpKc2-n4UdsgH-55" value="slow_down&#39;-N" style="text;html=1;strokeColor=none;fillColor=none;align=left;verticalAlign=middle;whiteSpace=wrap;rounded=0;fontFamily=Courier New;fontSize=9;fontColor=#990000;" vertex="1" parent="1">
          <mxGeometry x="470" y="260" width="80" height="20" as="geometry" />
        </mxCell>
        <mxCell id="UtuOTkVcpKc2-n4UdsgH-56" value="result_valid&#39;0" style="text;html=1;strokeColor=none;fillColor=none;align=left;verticalAlign=middle;whiteSpace=wrap;rounded=0;fontFamily=Courier New;fontSize=9;fontColor=#990000;" vertex="1" parent="1">
          <mxGeometry x="470" y="240" width="80" height="20" as="geometry" />
        </mxCell>
        <mxCell id="UtuOTkVcpKc2-n4UdsgH-57" value="" style="endArrow=classic;html=1;rounded=0;" edge="1" parent="1">
          <mxGeometry width="50" height="50" relative="1" as="geometry">
            <mxPoint x="470" y="240" as="sourcePoint" />
            <mxPoint x="550" y="240" as="targetPoint" />
          </mxGeometry>
        </mxCell>
        <mxCell id="UtuOTkVcpKc2-n4UdsgH-58" value="result&#39;0" style="text;html=1;strokeColor=none;fillColor=none;align=left;verticalAlign=middle;whiteSpace=wrap;rounded=0;fontFamily=Courier New;fontSize=9;fontColor=#990000;" vertex="1" parent="1">
          <mxGeometry x="470" y="220" width="80" height="20" as="geometry" />
        </mxCell>
        <mxCell id="UtuOTkVcpKc2-n4UdsgH-59" value="req_new_problem&#39;0" style="text;html=1;strokeColor=none;fillColor=none;align=right;verticalAlign=middle;whiteSpace=wrap;rounded=0;fontFamily=Courier New;fontSize=9;fontColor=#9999FF;" vertex="1" parent="1">
          <mxGeometry x="250" y="260" width="120" height="20" as="geometry" />
        </mxCell>
        <mxCell id="UtuOTkVcpKc2-n4UdsgH-60" value="new_problem&#39;3" style="text;html=1;strokeColor=none;fillColor=none;align=right;verticalAlign=middle;whiteSpace=wrap;rounded=0;fontFamily=Courier New;fontSize=9;fontColor=#9999FF;" vertex="1" parent="1">
          <mxGeometry x="250" y="220" width="120" height="20" as="geometry" />
        </mxCell>
        <mxCell id="UtuOTkVcpKc2-n4UdsgH-61" value="" style="endArrow=classic;html=1;rounded=0;" edge="1" parent="1">
          <mxGeometry width="50" height="50" relative="1" as="geometry">
            <mxPoint x="290" y="260" as="sourcePoint" />
            <mxPoint x="370" y="260" as="targetPoint" />
          </mxGeometry>
        </mxCell>
        <mxCell id="UtuOTkVcpKc2-n4UdsgH-62" value="new_problem_valid&#39;3" style="text;html=1;strokeColor=none;fillColor=none;align=right;verticalAlign=middle;whiteSpace=wrap;rounded=0;fontFamily=Courier New;fontSize=9;fontColor=#9999FF;" vertex="1" parent="1">
          <mxGeometry x="250" y="240" width="120" height="20" as="geometry" />
        </mxCell>
      </root>
    </mxGraphModel>
  </diagram>
</mxfile>
